<?xml version="1.0" encoding="utf-8"?>
<!-- Generator: Adobe Illustrator 19.0.0, SVG Export Plug-In . SVG Version: 6.00 Build 0)  -->
<svg version="1.1" id="Шар_1" xmlns="http://www.w3.org/2000/svg" xmlns:xlink="http://www.w3.org/1999/xlink" x="0px" y="0px"
	 viewBox="0 0 218 74" style="enable-background:new 0 0 218 74;" xml:space="preserve">
<style type="text/css">
	.st0{fill:#005963;}
	.st1{fill:#F28F03;}
	.st2{fill:#575756;}
</style>
<g id="XMLID_17_">
	<g id="XMLID_79_">
		<g id="XMLID_80_">
			<path id="XMLID_101_" class="st0" d="M129.3,24.4h-8.4v18.8c0,1.6,0.4,2.7,1.3,3.2c0.9,0.5,2.1,0.8,3.6,0.8c0.6,0,1.2,0,1.8-0.1
				c0.6-0.1,1.2-0.1,1.8-0.1v10c-1.2,0.1-2.5,0.1-3.7,0.2c-1.3,0.1-2.5,0.2-3.7,0.2c-2.9,0-5.3-0.2-7.1-0.7
				c-1.9-0.5-3.4-1.3-4.5-2.4c-1.1-1.1-1.8-2.6-2.3-4.5c-0.4-1.9-0.6-4.2-0.6-7V24.4l0,0v-8.8l0,0V3.1h13.6v12.5h8.4V24.4z"/>
			<path id="XMLID_93_" class="st0" d="M143.7,39.6c0.1,2.9,1,5.2,2.6,6.9c1.6,1.7,3.8,2.6,6.7,2.6c1.6,0,3.2-0.4,4.6-1.1
				c1.4-0.7,2.5-1.9,3.1-3.4h12.7c-0.6,2.4-1.6,4.5-3,6.2c-1.4,1.7-3,3.2-4.8,4.3c-1.8,1.1-3.9,1.9-6.1,2.5s-4.5,0.8-6.7,0.8
				c-3.4,0-6.4-0.5-9.2-1.5c-2.8-1-5.2-2.4-7.2-4.3c-2-1.9-3.5-4.2-4.6-6.9c-1.1-2.7-1.6-5.8-1.6-9.3c0-3.2,0.6-6.1,1.8-8.8
				c1.2-2.7,2.8-4.9,4.8-6.9c2-1.9,4.4-3.4,7.1-4.5c2.7-1.1,5.6-1.6,8.6-1.6c3.7,0,7,0.7,9.7,2c2.8,1.3,5.1,3.1,6.9,5.4
				c1.8,2.3,3.1,5,4,8s1.2,6.3,1,9.9H143.7z M160.5,32.1c-0.1-2.3-0.9-4.3-2.4-6c-1.5-1.6-3.4-2.5-5.7-2.5c-2.4,0-4.3,0.8-5.9,2.3
				c-1.5,1.5-2.5,3.6-2.9,6.1H160.5z"/>
			<path id="XMLID_87_" class="st0" d="M203.8,0.1h13.6v57h-13.6V0.1z"/>
			<path id="XMLID_81_" class="st0" d="M178,24.4h-6.5v-8.8h6.5c0-3,0.3-5.5,0.8-7.5c0.6-2,1.4-3.6,2.7-4.8c1.2-1.2,2.8-2,4.9-2.6
				c2-0.5,4.5-0.8,7.3-0.8c1.1,0,2.2,0,3.3,0.1c1.1,0.1,2.2,0.1,3.3,0.2v9.6c-1.3-0.2-2.5-0.2-3.7-0.2c-1.5,0-2.8,0.2-3.7,0.7
				c-0.9,0.5-1.4,1.6-1.4,3.5v1.8h8.1v8.8h-8.1V57H178V24.4z"/>
		</g>
	</g>
	<g id="XMLID_74_">
		<path id="XMLID_77_" class="st1" d="M0.2,16.2h10.6v5.5h0.2c1.5-2.1,3.3-3.7,5.3-4.9c2.1-1.2,4.5-1.7,7.2-1.7
			c2.6,0,4.9,0.5,7.1,1.5c2.1,1,3.8,2.8,4.9,5.3c1.2-1.8,2.9-3.4,4.9-4.7c2.1-1.4,4.6-2.1,7.4-2.1c2.2,0,4.2,0.3,6,0.8
			c1.8,0.5,3.4,1.4,4.7,2.5c1.3,1.2,2.3,2.7,3.1,4.6c0.7,1.9,1.1,4.1,1.1,6.8v27.4H51.5V33.9c0-1.4-0.1-2.7-0.2-3.9
			c-0.1-1.2-0.4-2.3-0.9-3.2c-0.5-0.9-1.2-1.6-2.1-2.1c-0.9-0.5-2.2-0.8-3.8-0.8c-1.6,0-2.9,0.3-3.8,0.9c-1,0.6-1.7,1.4-2.3,2.4
			c-0.6,1-0.9,2.1-1.1,3.3c-0.2,1.2-0.3,2.5-0.3,3.8v22.8H25.8v-23c0-1.2,0-2.3-0.1-3.6c-0.1-1.2-0.3-2.3-0.7-3.3
			c-0.4-1-1.1-1.8-2-2.4c-0.9-0.6-2.3-0.9-4.1-0.9c-0.6,0-1.3,0.1-2.1,0.4c-0.8,0.2-1.7,0.7-2.5,1.3c-0.8,0.7-1.5,1.6-2.1,2.8
			c-0.6,1.2-0.9,2.9-0.9,4.9v23.7H0.2V16.2z"/>
		<path id="XMLID_75_" class="st1" d="M84.8,63.8c-1.2,3.3-2.9,5.6-5.1,7.1c-2.2,1.5-5.2,2.2-9,2.2c-1.2,0-2.3,0-3.4-0.1
			c-1.1-0.1-2.3-0.2-3.4-0.3v-9.3c1.1,0.1,2.1,0.2,3.2,0.3c1.1,0.1,2.2,0.1,3.3,0.1c0.9-0.1,1.8-0.4,2.4-0.9
			c0.7-0.5,1.1-1.1,1.5-1.9c0.3-0.7,1.1-3.2,1.1-4c0-0.9-0.2-1.7-0.5-2.5L60.5,16.2h12l9.3,28h0.2l8.9-28h11.6L84.8,63.8z"/>
	</g>
	<g id="XMLID_18_">
		<path id="XMLID_72_" class="st2" d="M111.3,66.6V68h-0.7l-0.1-0.7h-1.4v4.9l0.7,0.1v0.5h-2.2v-0.5l0.7-0.1v-4.9h-1.4l-0.1,0.7
			h-0.7v-1.4H111.3z"/>
		<path id="XMLID_70_" class="st2" d="M114.4,72.9v-0.5l0.7-0.1v-4.9l-0.7-0.1v-0.5h4.8v1.5h-0.7l-0.1-0.8H116v2h2.4V70H116v2.2h2.5
			l0.1-0.8h0.7v1.5H114.4z"/>
		<path id="XMLID_67_" class="st2" d="M122.6,72.3l0.5-0.1l2.2-5.6h0.7l2.1,5.6l0.5,0.1v0.5h-1.8v-0.5l0.5-0.1l-0.4-1.2h-2.5
			l-0.4,1.2l0.5,0.1v0.5h-1.8V72.3z M124.6,70.4h2l-1-2.7h0L124.6,70.4z"/>
		<path id="XMLID_61_" class="st2" d="M136.3,68.5h-0.6l-0.2-0.9c-0.1-0.1-0.3-0.2-0.5-0.3c-0.2-0.1-0.4-0.1-0.7-0.1
			c-0.6,0-1.1,0.2-1.5,0.7c-0.3,0.5-0.5,1.1-0.5,1.8v0.1c0,0.7,0.2,1.3,0.5,1.8c0.3,0.5,0.8,0.7,1.4,0.7c0.3,0,0.5,0,0.8-0.1
			c0.2-0.1,0.4-0.2,0.5-0.3l0.2-0.9h0.6v1.1c-0.2,0.2-0.5,0.4-0.8,0.6c-0.4,0.2-0.8,0.3-1.3,0.3c-0.8,0-1.5-0.3-2-0.9
			c-0.5-0.6-0.8-1.4-0.8-2.3v-0.1c0-0.9,0.3-1.7,0.8-2.3c0.5-0.6,1.2-0.9,2-0.9c0.5,0,0.9,0.1,1.3,0.3s0.6,0.4,0.8,0.6V68.5z"/>
		<path id="XMLID_52_" class="st2" d="M139.7,67.2v-0.5h2.2v0.5l-0.7,0.1v2.2h3v-2.2l-0.7-0.1v-0.5h0.7h0.8h0.7v0.5l-0.7,0.1v4.9
			l0.7,0.1v0.5h-2.2v-0.5l0.7-0.1v-2.1h-3v2.1l0.7,0.1v0.5h-2.2v-0.5l0.7-0.1v-4.9L139.7,67.2z"/>
		<path id="XMLID_43_" class="st2" d="M158.8,71.2c0-0.3,0.1-0.7,0.3-0.9c0.2-0.3,0.5-0.5,0.9-0.8c-0.2-0.3-0.4-0.5-0.5-0.8
			c-0.1-0.2-0.2-0.5-0.2-0.7c0-0.5,0.1-0.9,0.4-1.1c0.3-0.3,0.7-0.4,1.2-0.4c0.5,0,0.8,0.1,1.1,0.4c0.3,0.3,0.4,0.6,0.4,0.9
			c0,0.3-0.1,0.5-0.2,0.7c-0.2,0.2-0.4,0.4-0.7,0.6l-0.5,0.3l1.5,1.8c0.1-0.2,0.2-0.4,0.3-0.6c0.1-0.2,0.1-0.5,0.1-0.7h0.8
			c0,0.4-0.1,0.7-0.2,1c-0.1,0.3-0.3,0.6-0.5,0.9l0.8,1l0,0h-1l-0.4-0.4c-0.2,0.2-0.5,0.3-0.8,0.4c-0.3,0.1-0.6,0.1-0.9,0.1
			c-0.6,0-1.1-0.2-1.5-0.5C159,72.1,158.8,71.7,158.8,71.2z M160.8,72.3c0.2,0,0.4,0,0.6-0.1c0.2-0.1,0.4-0.2,0.6-0.3l-1.5-1.9
			l-0.2,0.1c-0.3,0.2-0.4,0.4-0.5,0.6c-0.1,0.2-0.1,0.3-0.1,0.5c0,0.3,0.1,0.6,0.3,0.8C160.1,72.2,160.4,72.3,160.8,72.3z M160.2,68
			c0,0.2,0,0.3,0.1,0.5c0.1,0.2,0.2,0.3,0.3,0.5l0.6-0.4c0.2-0.1,0.3-0.2,0.3-0.4c0.1-0.1,0.1-0.3,0.1-0.4c0-0.2-0.1-0.3-0.2-0.5
			s-0.3-0.2-0.5-0.2c-0.2,0-0.4,0.1-0.5,0.2C160.2,67.6,160.2,67.8,160.2,68z"/>
		<path id="XMLID_38_" class="st2" d="M176.8,66.6V68h-0.7l-0.1-0.7h-1.4v4.9l0.7,0.1v0.5h-2.2v-0.5l0.7-0.1v-4.9h-1.4l-0.1,0.7
			h-0.7v-1.4H176.8z"/>
		<path id="XMLID_31_" class="st2" d="M182.7,66.6c0.7,0,1.2,0.2,1.6,0.5c0.4,0.3,0.5,0.7,0.5,1.3c0,0.3-0.1,0.6-0.3,0.8
			c-0.2,0.2-0.4,0.4-0.7,0.6c0.3,0.1,0.6,0.3,0.7,0.5c0.2,0.3,0.2,0.6,0.2,0.9v0.5c0,0.2,0,0.3,0.1,0.4c0,0.1,0.1,0.1,0.2,0.2l0.2,0
			v0.6h-0.5c-0.3,0-0.6-0.1-0.7-0.3c-0.1-0.2-0.2-0.5-0.2-0.8v-0.5c0-0.3-0.1-0.6-0.3-0.8c-0.2-0.2-0.5-0.3-0.8-0.3h-1.4v2.1
			l0.7,0.1v0.5h-2.2v-0.5l0.7-0.1v-4.9l-0.7-0.1v-0.5h0.7H182.7z M181.5,69.4h1.1c0.5,0,0.8-0.1,1-0.3s0.3-0.4,0.3-0.8
			c0-0.3-0.1-0.6-0.3-0.8c-0.2-0.2-0.5-0.3-1-0.3h-1.2V69.4z"/>
		<path id="XMLID_28_" class="st2" d="M188.5,72.3l0.5-0.1l2.2-5.6h0.7l2.1,5.6l0.5,0.1v0.5h-1.8v-0.5l0.5-0.1l-0.4-1.2h-2.5
			l-0.4,1.2l0.5,0.1v0.5h-1.8V72.3z M190.5,70.4h2l-1-2.7h0L190.5,70.4z"/>
		<path id="XMLID_25_" class="st2" d="M198.3,67.2l-0.6,0.1l1.4,4.1l0.1,0.5h0l0.1-0.5l1.4-4.1l-0.6-0.1v-0.5h2v0.5l-0.5,0.1
			l-2.1,5.6H199l-2.1-5.6l-0.5-0.1v-0.5h2V67.2z"/>
		<path id="XMLID_22_" class="st2" d="M205.4,72.9v-0.5l0.7-0.1v-4.9l-0.7-0.1v-0.5h4.8v1.5h-0.7l-0.1-0.8H207v2h2.4V70H207v2.2h2.5
			l0.1-0.8h0.7v1.5H205.4z"/>
		<path id="XMLID_20_" class="st2" d="M213.7,72.9v-0.5l0.7-0.1v-4.9l-0.7-0.1v-0.5h0.7h0.8h0.7v0.5l-0.7,0.1v4.9h2.2l0.1-0.7h0.7
			v1.4H213.7z"/>
	</g>
</g>
</svg>
